<svg preserveAspectRatio="none" width="100%" height="100%" overflow="visible" style="display: block;" viewBox="0 0 24 24" fill="none" xmlns="http://www.w3.org/2000/svg">
<g id="Frame 1597881665">
<path id="Vector" d="M17.9713 10.4622C17.9611 10.6453 17.9069 10.8231 17.8131 10.9807C17.7247 11.1371 17.6039 11.2729 17.4588 11.3791C17.3956 11.4249 17.3214 11.4533 17.2437 11.4613L16.1302 11.6067C16.0066 11.6277 15.8921 11.6849 15.8012 11.7711C15.4659 12.0936 15.1242 12.4034 14.656 12.8966L14.1182 13.4277C14.0483 13.5002 13.9982 13.5895 13.9727 13.6869L13.378 16.077C13.3805 16.1022 13.3805 16.1277 13.378 16.1529C13.2956 16.3382 13.1698 16.501 13.0112 16.6276C12.8527 16.7541 12.666 16.8407 12.4669 16.88H12.2391C12.1152 16.8789 11.9918 16.8619 11.8722 16.8294C11.6784 16.77 11.5023 16.6636 11.3597 16.5196L9.75267 14.9199L6.79801 17.8727C6.70805 17.9565 6.58908 18.0021 6.46615 17.9999C6.34321 17.9978 6.22592 17.948 6.13898 17.8611C6.05204 17.7742 6.00224 17.657 6.00007 17.5341C5.9979 17.4113 6.04354 17.2924 6.12736 17.2025L9.08201 14.2497L7.50029 12.6689C7.35886 12.523 7.25469 12.3452 7.1966 12.1505C7.13234 11.9567 7.12142 11.7492 7.16497 11.5498C7.20213 11.3532 7.28684 11.1687 7.41171 11.0123C7.53819 10.8538 7.70093 10.7281 7.88623 10.6456H7.96215L10.3284 10.0133C10.4332 9.98534 10.5291 9.93091 10.6068 9.85523C11.4862 8.98899 11.7899 8.68549 12.2708 8.16701C12.3526 8.0804 12.4037 7.96933 12.4163 7.85086L12.5681 6.7317C12.575 6.65185 12.6034 6.57536 12.6504 6.5104C12.8122 6.2927 13.0398 6.13277 13.2996 6.05421C13.5593 5.97566 13.8374 5.98263 14.0929 6.07411C14.264 6.13714 14.4193 6.23636 14.5485 6.36497L17.636 9.46321C17.7624 9.59149 17.86 9.74528 17.9222 9.9143C17.9844 10.0833 18.0098 10.2637 17.9966 10.4433L17.9713 10.4622Z" fill="currentColor"/>
</g>
</svg>
