<svg width="24" height="24" viewBox="0 0 24 24" fill="none" xmlns="http://www.w3.org/2000/svg">
<rect x="0.5" y="0.5" width="23" height="23" rx="11.5" stroke="#E5E6E9"/>
<path d="M12.666 16L16.666 12L12.666 8" stroke="#E5E6E9" stroke-width="1.2" stroke-linecap="round"/>
<path d="M8 11.5C7.72386 11.5 7.5 11.7239 7.5 12C7.5 12.2761 7.72386 12.5 8 12.5L8 12L8 11.5ZM8 12L8 12.5C8.00574 12.5 8.01148 12.5 8.01722 12.5C8.02296 12.5 8.02869 12.5 8.03442 12.5C8.04015 12.5 8.04588 12.5 8.0516 12.5C8.05733 12.5 8.06305 12.5 8.06877 12.5C8.07448 12.5 8.0802 12.5 8.08591 12.5C8.09162 12.5 8.09733 12.5 8.10304 12.5C8.10874 12.5 8.11445 12.5 8.12015 12.5C8.12585 12.5 8.13154 12.5 8.13724 12.5C8.14293 12.5 8.14862 12.5 8.15431 12.5C8.16 12.5 8.16568 12.5 8.17136 12.5C8.17704 12.5 8.18272 12.5 8.1884 12.5C8.19407 12.5 8.19975 12.5 8.20542 12.5C8.21109 12.5 8.21675 12.5 8.22242 12.5C8.22808 12.5 8.23374 12.5 8.2394 12.5C8.24506 12.5 8.25071 12.5 8.25636 12.5C8.26201 12.5 8.26766 12.5 8.27331 12.5C8.27895 12.5 8.2846 12.5 8.29024 12.5C8.29588 12.5 8.30151 12.5 8.30715 12.5C8.31278 12.5 8.31841 12.5 8.32404 12.5C8.32967 12.5 8.3353 12.5 8.34092 12.5C8.34654 12.5 8.35216 12.5 8.35778 12.5C8.36339 12.5 8.36901 12.5 8.37462 12.5C8.38023 12.5 8.38584 12.5 8.39144 12.5C8.39705 12.5 8.40265 12.5 8.40825 12.5C8.41385 12.5 8.41945 12.5 8.42504 12.5C8.43064 12.5 8.43623 12.5 8.44182 12.5C8.4474 12.5 8.45299 12.5 8.45857 12.5C8.46416 12.5 8.46974 12.5 8.47531 12.5C8.48089 12.5 8.48646 12.5 8.49204 12.5C8.49761 12.5 8.50318 12.5 8.50874 12.5C8.51431 12.5 8.51987 12.5 8.52543 12.5C8.53099 12.5 8.53655 12.5 8.54211 12.5C8.54766 12.5 8.55321 12.5 8.55876 12.5C8.56431 12.5 8.56986 12.5 8.5754 12.5C8.58095 12.5 8.58649 12.5 8.59203 12.5C8.59757 12.5 8.6031 12.5 8.60863 12.5C8.61417 12.5 8.6197 12.5 8.62523 12.5C8.63075 12.5 8.63628 12.5 8.6418 12.5C8.64733 12.5 8.65284 12.5 8.65836 12.5C8.66388 12.5 8.66939 12.5 8.67491 12.5C8.68042 12.5 8.68593 12.5 8.69143 12.5C8.69694 12.5 8.70244 12.5 8.70795 12.5C8.71345 12.5 8.71895 12.5 8.72444 12.5C8.72994 12.5 8.73543 12.5 8.74092 12.5C8.74641 12.5 8.7519 12.5 8.75739 12.5C8.76287 12.5 8.76836 12.5 8.77384 12.5C8.77932 12.5 8.7848 12.5 8.79027 12.5C8.79575 12.5 8.80122 12.5 8.80669 12.5C8.81216 12.5 8.81763 12.5 8.8231 12.5C8.82856 12.5 8.83402 12.5 8.83948 12.5C8.84494 12.5 8.8504 12.5 8.85586 12.5C8.86131 12.5 8.86677 12.5 8.87222 12.5C8.87767 12.5 8.88311 12.5 8.88856 12.5C8.894 12.5 8.89945 12.5 8.90489 12.5C8.91033 12.5 8.91577 12.5 8.9212 12.5C8.92664 12.5 8.93207 12.5 8.9375 12.5C8.94293 12.5 8.94836 12.5 8.95378 12.5C8.95921 12.5 8.96463 12.5 8.97005 12.5C8.97547 12.5 8.98089 12.5 8.98631 12.5C8.99172 12.5 8.99714 12.5 9.00255 12.5C9.00796 12.5 9.01337 12.5 9.01878 12.5C9.02418 12.5 9.02959 12.5 9.03499 12.5C9.04039 12.5 9.04579 12.5 9.05119 12.5C9.05658 12.5 9.06198 12.5 9.06737 12.5C9.07276 12.5 9.07815 12.5 9.08354 12.5C9.08893 12.5 9.09431 12.5 9.09969 12.5C9.10508 12.5 9.11046 12.5 9.11583 12.5C9.12121 12.5 9.12659 12.5 9.13196 12.5C9.13734 12.5 9.14271 12.5 9.14808 12.5C9.15344 12.5 9.15881 12.5 9.16418 12.5C9.16954 12.5 9.1749 12.5 9.18026 12.5C9.18562 12.5 9.19098 12.5 9.19633 12.5C9.20169 12.5 9.20704 12.5 9.21239 12.5C9.21774 12.5 9.22309 12.5 9.22844 12.5C9.23379 12.5 9.23913 12.5 9.24447 12.5C9.24981 12.5 9.25515 12.5 9.26049 12.5C9.26583 12.5 9.27116 12.5 9.2765 12.5C9.28183 12.5 9.28716 12.5 9.29249 12.5C9.29782 12.5 9.30315 12.5 9.30847 12.5C9.31379 12.5 9.31912 12.5 9.32444 12.5C9.32976 12.5 9.33507 12.5 9.34039 12.5C9.34571 12.5 9.35102 12.5 9.35633 12.5C9.36164 12.5 9.36695 12.5 9.37226 12.5C9.37757 12.5 9.38287 12.5 9.38817 12.5C9.39348 12.5 9.39878 12.5 9.40408 12.5C9.40938 12.5 9.41467 12.5 9.41997 12.5C9.42526 12.5 9.43055 12.5 9.43585 12.5C9.44114 12.5 9.44642 12.5 9.45171 12.5C9.457 12.5 9.46228 12.5 9.46756 12.5C9.47285 12.5 9.47813 12.5 9.4834 12.5C9.48868 12.5 9.49396 12.5 9.49923 12.5C9.50451 12.5 9.50978 12.5 9.51505 12.5C9.52032 12.5 9.52559 12.5 9.53085 12.5C9.53612 12.5 9.54138 12.5 9.54665 12.5C9.55191 12.5 9.55717 12.5 9.56243 12.5C9.56769 12.5 9.57294 12.5 9.5782 12.5C9.58345 12.5 9.5887 12.5 9.59395 12.5C9.5992 12.5 9.60445 12.5 9.6097 12.5C9.61494 12.5 9.62019 12.5 9.62543 12.5C9.63067 12.5 9.63591 12.5 9.64115 12.5C9.64639 12.5 9.65163 12.5 9.65686 12.5C9.6621 12.5 9.66733 12.5 9.67256 12.5C9.6778 12.5 9.68302 12.5 9.68825 12.5C9.69348 12.5 9.6987 12.5 9.70393 12.5C9.70915 12.5 9.71437 12.5 9.71959 12.5C9.72481 12.5 9.73003 12.5 9.73525 12.5C9.74047 12.5 9.74568 12.5 9.75089 12.5C9.75611 12.5 9.76132 12.5 9.76652 12.5C9.77173 12.5 9.77694 12.5 9.78215 12.5C9.78735 12.5 9.79256 12.5 9.79776 12.5C9.80296 12.5 9.80816 12.5 9.81336 12.5C9.81856 12.5 9.82375 12.5 9.82895 12.5C9.83414 12.5 9.83934 12.5 9.84453 12.5C9.84972 12.5 9.85491 12.5 9.86009 12.5C9.86528 12.5 9.87047 12.5 9.87565 12.5C9.88084 12.5 9.88602 12.5 9.8912 12.5C9.89638 12.5 9.90156 12.5 9.90674 12.5C9.91192 12.5 9.91709 12.5 9.92227 12.5C9.92744 12.5 9.93261 12.5 9.93778 12.5C9.94295 12.5 9.94812 12.5 9.95329 12.5C9.95846 12.5 9.96362 12.5 9.96879 12.5C9.97395 12.5 9.97911 12.5 9.98427 12.5C9.98943 12.5 9.99459 12.5 9.99975 12.5C10.0049 12.5 10.0101 12.5 10.0152 12.5C10.0204 12.5 10.0255 12.5 10.0307 12.5C10.0358 12.5 10.041 12.5 10.0461 12.5C10.0513 12.5 10.0564 12.5 10.0616 12.5C10.0667 12.5 10.0719 12.5 10.077 12.5C10.0821 12.5 10.0873 12.5 10.0924 12.5C10.0976 12.5 10.1027 12.5 10.1078 12.5C10.113 12.5 10.1181 12.5 10.1232 12.5C10.1284 12.5 10.1335 12.5 10.1386 12.5C10.1437 12.5 10.1489 12.5 10.154 12.5C10.1591 12.5 10.1642 12.5 10.1694 12.5C10.1745 12.5 10.1796 12.5 10.1847 12.5C10.1899 12.5 10.195 12.5 10.2001 12.5C10.2052 12.5 10.2103 12.5 10.2154 12.5C10.2206 12.5 10.2257 12.5 10.2308 12.5C10.2359 12.5 10.241 12.5 10.2461 12.5C10.2512 12.5 10.2563 12.5 10.2614 12.5C10.2665 12.5 10.2716 12.5 10.2767 12.5C10.2818 12.5 10.2869 12.5 10.292 12.5C10.2971 12.5 10.3022 12.5 10.3073 12.5C10.3124 12.5 10.3175 12.5 10.3226 12.5C10.3277 12.5 10.3328 12.5 10.3379 12.5C10.343 12.5 10.3481 12.5 10.3532 12.5C10.3583 12.5 10.3634 12.5 10.3684 12.5C10.3735 12.5 10.3786 12.5 10.3837 12.5C10.3888 12.5 10.3939 12.5 10.3989 12.5C10.404 12.5 10.4091 12.5 10.4142 12.5C10.4193 12.5 10.4243 12.5 10.4294 12.5C10.4345 12.5 10.4396 12.5 10.4446 12.5C10.4497 12.5 10.4548 12.5 10.4599 12.5C10.4649 12.5 10.47 12.5 10.4751 12.5C10.4801 12.5 10.4852 12.5 10.4903 12.5C10.4953 12.5 10.5004 12.5 10.5055 12.5C10.5105 12.5 10.5156 12.5 10.5206 12.5C10.5257 12.5 10.5308 12.5 10.5358 12.5C10.5409 12.5 10.5459 12.5 10.551 12.5C10.5561 12.5 10.5611 12.5 10.5662 12.5C10.5712 12.5 10.5763 12.5 10.5813 12.5C10.5864 12.5 10.5914 12.5 10.5965 12.5C10.6015 12.5 10.6066 12.5 10.6116 12.5C10.6167 12.5 10.6217 12.5 10.6268 12.5C10.6318 12.5 10.6368 12.5 10.6419 12.5C10.6469 12.5 10.652 12.5 10.657 12.5C10.662 12.5 10.6671 12.5 10.6721 12.5C10.6772 12.5 10.6822 12.5 10.6872 12.5C10.6923 12.5 10.6973 12.5 10.7023 12.5C10.7074 12.5 10.7124 12.5 10.7174 12.5C10.7225 12.5 10.7275 12.5 10.7325 12.5C10.7376 12.5 10.7426 12.5 10.7476 12.5C10.7526 12.5 10.7577 12.5 10.7627 12.5C10.7677 12.5 10.7727 12.5 10.7778 12.5C10.7828 12.5 10.7878 12.5 10.7928 12.5C10.7979 12.5 10.8029 12.5 10.8079 12.5C10.8129 12.5 10.8179 12.5 10.8229 12.5C10.828 12.5 10.833 12.5 10.838 12.5C10.843 12.5 10.848 12.5 10.853 12.5C10.8581 12.5 10.8631 12.5 10.8681 12.5C10.8731 12.5 10.8781 12.5 10.8831 12.5C10.8881 12.5 10.8931 12.5 10.8981 12.5C10.9031 12.5 10.9082 12.5 10.9132 12.5C10.9182 12.5 10.9232 12.5 10.9282 12.5C10.9332 12.5 10.9382 12.5 10.9432 12.5C10.9482 12.5 10.9532 12.5 10.9582 12.5C10.9632 12.5 10.9682 12.5 10.9732 12.5C10.9782 12.5 10.9832 12.5 10.9882 12.5C10.9932 12.5 10.9982 12.5 11.0032 12.5C11.0082 12.5 11.0132 12.5 11.0182 12.5C11.0232 12.5 11.0282 12.5 11.0331 12.5C11.0381 12.5 11.0431 12.5 11.0481 12.5C11.0531 12.5 11.0581 12.5 11.0631 12.5C11.0681 12.5 11.0731 12.5 11.0781 12.5C11.083 12.5 11.088 12.5 11.093 12.5C11.098 12.5 11.103 12.5 11.108 12.5C11.113 12.5 11.1179 12.5 11.1229 12.5C11.1279 12.5 11.1329 12.5 11.1379 12.5C11.1429 12.5 11.1478 12.5 11.1528 12.5C11.1578 12.5 11.1628 12.5 11.1678 12.5C11.1727 12.5 11.1777 12.5 11.1827 12.5C11.1877 12.5 11.1927 12.5 11.1976 12.5C11.2026 12.5 11.2076 12.5 11.2126 12.5C11.2175 12.5 11.2225 12.5 11.2275 12.5C11.2325 12.5 11.2374 12.5 11.2424 12.5C11.2474 12.5 11.2523 12.5 11.2573 12.5C11.2623 12.5 11.2673 12.5 11.2722 12.5C11.2772 12.5 11.2822 12.5 11.2871 12.5C11.2921 12.5 11.2971 12.5 11.302 12.5C11.307 12.5 11.312 12.5 11.317 12.5C11.3219 12.5 11.3269 12.5 11.3319 12.5C11.3368 12.5 11.3418 12.5 11.3467 12.5C11.3517 12.5 11.3567 12.5 11.3616 12.5C11.3666 12.5 11.3716 12.5 11.3765 12.5C11.3815 12.5 11.3865 12.5 11.3914 12.5C11.3964 12.5 11.4013 12.5 11.4063 12.5C11.4113 12.5 11.4162 12.5 11.4212 12.5C11.4261 12.5 11.4311 12.5 11.4361 12.5C11.441 12.5 11.446 12.5 11.4509 12.5C11.4559 12.5 11.4608 12.5 11.4658 12.5C11.4708 12.5 11.4757 12.5 11.4807 12.5C11.4856 12.5 11.4906 12.5 11.4955 12.5C11.5005 12.5 11.5054 12.5 11.5104 12.5C11.5154 12.5 11.5203 12.5 11.5253 12.5C11.5302 12.5 11.5352 12.5 11.5401 12.5C11.5451 12.5 11.55 12.5 11.555 12.5C11.5599 12.5 11.5649 12.5 11.5698 12.5C11.5748 12.5 11.5797 12.5 11.5847 12.5C11.5896 12.5 11.5946 12.5 11.5995 12.5C11.6045 12.5 11.6094 12.5 11.6144 12.5C11.6193 12.5 11.6243 12.5 11.6292 12.5C11.6342 12.5 11.6391 12.5 11.6441 12.5C11.649 12.5 11.654 12.5 11.6589 12.5C11.6639 12.5 11.6688 12.5 11.6738 12.5C11.6787 12.5 11.6837 12.5 11.6886 12.5C11.6936 12.5 11.6985 12.5 11.7034 12.5C11.7084 12.5 11.7133 12.5 11.7183 12.5C11.7232 12.5 11.7282 12.5 11.7331 12.5C11.7381 12.5 11.743 12.5 11.7479 12.5C11.7529 12.5 11.7578 12.5 11.7628 12.5C11.7677 12.5 11.7727 12.5 11.7776 12.5C11.7826 12.5 11.7875 12.5 11.7924 12.5C11.7974 12.5 11.8023 12.5 11.8073 12.5C11.8122 12.5 11.8172 12.5 11.8221 12.5C11.827 12.5 11.832 12.5 11.8369 12.5C11.8419 12.5 11.8468 12.5 11.8518 12.5C11.8567 12.5 11.8616 12.5 11.8666 12.5C11.8715 12.5 11.8765 12.5 11.8814 12.5C11.8864 12.5 11.8913 12.5 11.8962 12.5C11.9012 12.5 11.9061 12.5 11.9111 12.5C11.916 12.5 11.9209 12.5 11.9259 12.5C11.9308 12.5 11.9358 12.5 11.9407 12.5C11.9456 12.5 11.9506 12.5 11.9555 12.5C11.9605 12.5 11.9654 12.5 11.9704 12.5C11.9753 12.5 11.9802 12.5 11.9852 12.5C11.9901 12.5 11.9951 12.5 12 12.5C12.0049 12.5 12.0099 12.5 12.0148 12.5C12.0198 12.5 12.0247 12.5 12.0296 12.5C12.0346 12.5 12.0395 12.5 12.0445 12.5C12.0494 12.5 12.0544 12.5 12.0593 12.5C12.0642 12.5 12.0692 12.5 12.0741 12.5C12.0791 12.5 12.084 12.5 12.0889 12.5C12.0939 12.5 12.0988 12.5 12.1038 12.5C12.1087 12.5 12.1136 12.5 12.1186 12.5C12.1235 12.5 12.1285 12.5 12.1334 12.5C12.1384 12.5 12.1433 12.5 12.1482 12.5C12.1532 12.5 12.1581 12.5 12.1631 12.5C12.168 12.5 12.173 12.5 12.1779 12.5C12.1828 12.5 12.1878 12.5 12.1927 12.5C12.1977 12.5 12.2026 12.5 12.2076 12.5C12.2125 12.5 12.2174 12.5 12.2224 12.5C12.2273 12.5 12.2323 12.5 12.2372 12.5C12.2422 12.5 12.2471 12.5 12.2521 12.5C12.257 12.5 12.2619 12.5 12.2669 12.5C12.2718 12.5 12.2768 12.5 12.2817 12.5C12.2867 12.5 12.2916 12.5 12.2966 12.5C12.3015 12.5 12.3064 12.5 12.3114 12.5C12.3163 12.5 12.3213 12.5 12.3262 12.5C12.3312 12.5 12.3361 12.5 12.3411 12.5C12.346 12.5 12.351 12.5 12.3559 12.5C12.3609 12.5 12.3658 12.5 12.3708 12.5C12.3757 12.5 12.3807 12.5 12.3856 12.5C12.3906 12.5 12.3955 12.5 12.4005 12.5C12.4054 12.5 12.4104 12.5 12.4153 12.5C12.4203 12.5 12.4252 12.5 12.4302 12.5C12.4351 12.5 12.4401 12.5 12.445 12.5C12.45 12.5 12.4549 12.5 12.4599 12.5C12.4648 12.5 12.4698 12.5 12.4747 12.5C12.4797 12.5 12.4846 12.5 12.4896 12.5C12.4946 12.5 12.4995 12.5 12.5045 12.5C12.5094 12.5 12.5144 12.5 12.5193 12.5C12.5243 12.5 12.5292 12.5 12.5342 12.5C12.5392 12.5 12.5441 12.5 12.5491 12.5C12.554 12.5 12.559 12.5 12.5639 12.5C12.5689 12.5 12.5739 12.5 12.5788 12.5C12.5838 12.5 12.5887 12.5 12.5937 12.5C12.5987 12.5 12.6036 12.5 12.6086 12.5C12.6135 12.5 12.6185 12.5 12.6235 12.5C12.6284 12.5 12.6334 12.5 12.6384 12.5C12.6433 12.5 12.6483 12.5 12.6533 12.5C12.6582 12.5 12.6632 12.5 12.6681 12.5C12.6731 12.5 12.6781 12.5 12.683 12.5C12.688 12.5 12.693 12.5 12.698 12.5C12.7029 12.5 12.7079 12.5 12.7129 12.5C12.7178 12.5 12.7228 12.5 12.7278 12.5C12.7327 12.5 12.7377 12.5 12.7427 12.5C12.7477 12.5 12.7526 12.5 12.7576 12.5C12.7626 12.5 12.7675 12.5 12.7725 12.5C12.7775 12.5 12.7825 12.5 12.7874 12.5C12.7924 12.5 12.7974 12.5 12.8024 12.5C12.8073 12.5 12.8123 12.5 12.8173 12.5C12.8223 12.5 12.8273 12.5 12.8322 12.5C12.8372 12.5 12.8422 12.5 12.8472 12.5C12.8522 12.5 12.8571 12.5 12.8621 12.5C12.8671 12.5 12.8721 12.5 12.8771 12.5C12.8821 12.5 12.887 12.5 12.892 12.5C12.897 12.5 12.902 12.5 12.907 12.5C12.912 12.5 12.917 12.5 12.9219 12.5C12.9269 12.5 12.9319 12.5 12.9369 12.5C12.9419 12.5 12.9469 12.5 12.9519 12.5C12.9569 12.5 12.9619 12.5 12.9669 12.5C12.9718 12.5 12.9768 12.5 12.9818 12.5C12.9868 12.5 12.9918 12.5 12.9968 12.5C13.0018 12.5 13.0068 12.5 13.0118 12.5C13.0168 12.5 13.0218 12.5 13.0268 12.5C13.0318 12.5 13.0368 12.5 13.0418 12.5C13.0468 12.5 13.0518 12.5 13.0568 12.5C13.0618 12.5 13.0668 12.5 13.0718 12.5C13.0768 12.5 13.0818 12.5 13.0868 12.5C13.0918 12.5 13.0969 12.5 13.1019 12.5C13.1069 12.5 13.1119 12.5 13.1169 12.5C13.1219 12.5 13.1269 12.5 13.1319 12.5C13.1369 12.5 13.1419 12.5 13.147 12.5C13.152 12.5 13.157 12.5 13.162 12.5C13.167 12.5 13.172 12.5 13.1771 12.5C13.1821 12.5 13.1871 12.5 13.1921 12.5C13.1971 12.5 13.2021 12.5 13.2072 12.5C13.2122 12.5 13.2172 12.5 13.2222 12.5C13.2273 12.5 13.2323 12.5 13.2373 12.5C13.2423 12.5 13.2474 12.5 13.2524 12.5C13.2574 12.5 13.2624 12.5 13.2675 12.5C13.2725 12.5 13.2775 12.5 13.2826 12.5C13.2876 12.5 13.2926 12.5 13.2977 12.5C13.3027 12.5 13.3077 12.5 13.3128 12.5C13.3178 12.5 13.3228 12.5 13.3279 12.5C13.3329 12.5 13.338 12.5 13.343 12.5C13.348 12.5 13.3531 12.5 13.3581 12.5C13.3632 12.5 13.3682 12.5 13.3732 12.5C13.3783 12.5 13.3833 12.5 13.3884 12.5C13.3934 12.5 13.3985 12.5 13.4035 12.5C13.4086 12.5 13.4136 12.5 13.4187 12.5C13.4237 12.5 13.4288 12.5 13.4338 12.5C13.4389 12.5 13.4439 12.5 13.449 12.5C13.4541 12.5 13.4591 12.5 13.4642 12.5C13.4692 12.5 13.4743 12.5 13.4794 12.5C13.4844 12.5 13.4895 12.5 13.4945 12.5C13.4996 12.5 13.5047 12.5 13.5097 12.5C13.5148 12.5 13.5199 12.5 13.5249 12.5C13.53 12.5 13.5351 12.5 13.5401 12.5C13.5452 12.5 13.5503 12.5 13.5554 12.5C13.5604 12.5 13.5655 12.5 13.5706 12.5C13.5757 12.5 13.5807 12.5 13.5858 12.5C13.5909 12.5 13.596 12.5 13.6011 12.5C13.6061 12.5 13.6112 12.5 13.6163 12.5C13.6214 12.5 13.6265 12.5 13.6316 12.5C13.6366 12.5 13.6417 12.5 13.6468 12.5C13.6519 12.5 13.657 12.5 13.6621 12.5C13.6672 12.5 13.6723 12.5 13.6774 12.5C13.6825 12.5 13.6876 12.5 13.6927 12.5C13.6978 12.5 13.7029 12.5 13.708 12.5C13.7131 12.5 13.7182 12.5 13.7233 12.5C13.7284 12.5 13.7335 12.5 13.7386 12.5C13.7437 12.5 13.7488 12.5 13.7539 12.5C13.759 12.5 13.7641 12.5 13.7692 12.5C13.7743 12.5 13.7794 12.5 13.7846 12.5C13.7897 12.5 13.7948 12.5 13.7999 12.5C13.805 12.5 13.8101 12.5 13.8153 12.5C13.8204 12.5 13.8255 12.5 13.8306 12.5C13.8358 12.5 13.8409 12.5 13.846 12.5C13.8511 12.5 13.8563 12.5 13.8614 12.5C13.8665 12.5 13.8716 12.5 13.8768 12.5C13.8819 12.5 13.887 12.5 13.8922 12.5C13.8973 12.5 13.9024 12.5 13.9076 12.5C13.9127 12.5 13.9179 12.5 13.923 12.5C13.9281 12.5 13.9333 12.5 13.9384 12.5C13.9436 12.5 13.9487 12.5 13.9539 12.5C13.959 12.5 13.9642 12.5 13.9693 12.5C13.9745 12.5 13.9796 12.5 13.9848 12.5C13.9899 12.5 13.9951 12.5 14.0002 12.5C14.0054 12.5 14.0106 12.5 14.0157 12.5C14.0209 12.5 14.026 12.5 14.0312 12.5C14.0364 12.5 14.0415 12.5 14.0467 12.5C14.0519 12.5 14.057 12.5 14.0622 12.5C14.0674 12.5 14.0726 12.5 14.0777 12.5C14.0829 12.5 14.0881 12.5 14.0933 12.5C14.0984 12.5 14.1036 12.5 14.1088 12.5C14.114 12.5 14.1192 12.5 14.1243 12.5C14.1295 12.5 14.1347 12.5 14.1399 12.5C14.1451 12.5 14.1503 12.5 14.1555 12.5C14.1607 12.5 14.1659 12.5 14.1711 12.5C14.1762 12.5 14.1814 12.5 14.1866 12.5C14.1918 12.5 14.197 12.5 14.2022 12.5C14.2074 12.5 14.2126 12.5 14.2179 12.5C14.2231 12.5 14.2283 12.5 14.2335 12.5C14.2387 12.5 14.2439 12.5 14.2491 12.5C14.2543 12.5 14.2595 12.5 14.2648 12.5C14.27 12.5 14.2752 12.5 14.2804 12.5C14.2856 12.5 14.2908 12.5 14.2961 12.5C14.3013 12.5 14.3065 12.5 14.3117 12.5C14.317 12.5 14.3222 12.5 14.3274 12.5C14.3327 12.5 14.3379 12.5 14.3431 12.5C14.3484 12.5 14.3536 12.5 14.3588 12.5C14.3641 12.5 14.3693 12.5 14.3746 12.5C14.3798 12.5 14.3851 12.5 14.3903 12.5C14.3955 12.5 14.4008 12.5 14.406 12.5C14.4113 12.5 14.4166 12.5 14.4218 12.5C14.4271 12.5 14.4323 12.5 14.4376 12.5C14.4428 12.5 14.4481 12.5 14.4534 12.5C14.4586 12.5 14.4639 12.5 14.4691 12.5C14.4744 12.5 14.4797 12.5 14.485 12.5C14.4902 12.5 14.4955 12.5 14.5008 12.5C14.506 12.5 14.5113 12.5 14.5166 12.5C14.5219 12.5 14.5272 12.5 14.5324 12.5C14.5377 12.5 14.543 12.5 14.5483 12.5C14.5536 12.5 14.5589 12.5 14.5642 12.5C14.5694 12.5 14.5747 12.5 14.58 12.5C14.5853 12.5 14.5906 12.5 14.5959 12.5C14.6012 12.5 14.6065 12.5 14.6118 12.5C14.6171 12.5 14.6224 12.5 14.6277 12.5C14.633 12.5 14.6384 12.5 14.6437 12.5C14.649 12.5 14.6543 12.5 14.6596 12.5C14.6649 12.5 14.6702 12.5 14.6756 12.5C14.6809 12.5 14.6862 12.5 14.6915 12.5C14.6969 12.5 14.7022 12.5 14.7075 12.5C14.7128 12.5 14.7182 12.5 14.7235 12.5C14.7288 12.5 14.7342 12.5 14.7395 12.5C14.7448 12.5 14.7502 12.5 14.7555 12.5C14.7609 12.5 14.7662 12.5 14.7716 12.5C14.7769 12.5 14.7823 12.5 14.7876 12.5C14.793 12.5 14.7983 12.5 14.8037 12.5C14.809 12.5 14.8144 12.5 14.8197 12.5C14.8251 12.5 14.8305 12.5 14.8358 12.5C14.8412 12.5 14.8466 12.5 14.8519 12.5C14.8573 12.5 14.8627 12.5 14.868 12.5C14.8734 12.5 14.8788 12.5 14.8842 12.5C14.8895 12.5 14.8949 12.5 14.9003 12.5C14.9057 12.5 14.9111 12.5 14.9165 12.5C14.9218 12.5 14.9272 12.5 14.9326 12.5C14.938 12.5 14.9434 12.5 14.9488 12.5C14.9542 12.5 14.9596 12.5 14.965 12.5C14.9704 12.5 14.9758 12.5 14.9812 12.5C14.9866 12.5 14.992 12.5 14.9975 12.5C15.0029 12.5 15.0083 12.5 15.0137 12.5C15.0191 12.5 15.0245 12.5 15.0299 12.5C15.0354 12.5 15.0408 12.5 15.0462 12.5C15.0516 12.5 15.0571 12.5 15.0625 12.5C15.0679 12.5 15.0734 12.5 15.0788 12.5C15.0842 12.5 15.0897 12.5 15.0951 12.5C15.1006 12.5 15.106 12.5 15.1114 12.5C15.1169 12.5 15.1223 12.5 15.1278 12.5C15.1332 12.5 15.1387 12.5 15.1441 12.5C15.1496 12.5 15.1551 12.5 15.1605 12.5C15.166 12.5 15.1714 12.5 15.1769 12.5C15.1824 12.5 15.1878 12.5 15.1933 12.5C15.1988 12.5 15.2043 12.5 15.2097 12.5C15.2152 12.5 15.2207 12.5 15.2262 12.5C15.2316 12.5 15.2371 12.5 15.2426 12.5C15.2481 12.5 15.2536 12.5 15.2591 12.5C15.2646 12.5 15.2701 12.5 15.2756 12.5C15.2811 12.5 15.2866 12.5 15.2921 12.5C15.2976 12.5 15.3031 12.5 15.3086 12.5C15.3141 12.5 15.3196 12.5 15.3251 12.5C15.3306 12.5 15.3361 12.5 15.3416 12.5C15.3472 12.5 15.3527 12.5 15.3582 12.5C15.3637 12.5 15.3692 12.5 15.3748 12.5C15.3803 12.5 15.3858 12.5 15.3914 12.5C15.3969 12.5 15.4024 12.5 15.408 12.5C15.4135 12.5 15.4191 12.5 15.4246 12.5C15.4301 12.5 15.4357 12.5 15.4412 12.5C15.4468 12.5 15.4523 12.5 15.4579 12.5C15.4634 12.5 15.469 12.5 15.4746 12.5C15.4801 12.5 15.4857 12.5 15.4913 12.5C15.4968 12.5 15.5024 12.5 15.508 12.5C15.5135 12.5 15.5191 12.5 15.5247 12.5C15.5303 12.5 15.5358 12.5 15.5414 12.5C15.547 12.5 15.5526 12.5 15.5582 12.5C15.5638 12.5 15.5694 12.5 15.575 12.5C15.5806 12.5 15.5861 12.5 15.5917 12.5C15.5973 12.5 15.603 12.5 15.6086 12.5C15.6142 12.5 15.6198 12.5 15.6254 12.5C15.631 12.5 15.6366 12.5 15.6422 12.5C15.6478 12.5 15.6535 12.5 15.6591 12.5C15.6647 12.5 15.6703 12.5 15.676 12.5C15.6816 12.5 15.6872 12.5 15.6929 12.5C15.6985 12.5 15.7041 12.5 15.7098 12.5C15.7154 12.5 15.721 12.5 15.7267 12.5C15.7323 12.5 15.738 12.5 15.7436 12.5C15.7493 12.5 15.7549 12.5 15.7606 12.5C15.7663 12.5 15.7719 12.5 15.7776 12.5C15.7832 12.5 15.7889 12.5 15.7946 12.5C15.8003 12.5 15.8059 12.5 15.8116 12.5C15.8173 12.5 15.823 12.5 15.8286 12.5C15.8343 12.5 15.84 12.5 15.8457 12.5C15.8514 12.5 15.8571 12.5 15.8628 12.5C15.8685 12.5 15.8742 12.5 15.8799 12.5C15.8856 12.5 15.8913 12.5 15.897 12.5C15.9027 12.5 15.9084 12.5 15.9141 12.5C15.9198 12.5 15.9255 12.5 15.9312 12.5C15.937 12.5 15.9427 12.5 15.9484 12.5C15.9541 12.5 15.9598 12.5 15.9656 12.5C15.9713 12.5 15.977 12.5 15.9828 12.5C15.9885 12.5 15.9943 12.5 16 12.5L16 12L16 11.5C15.9943 11.5 15.9885 11.5 15.9828 11.5C15.977 11.5 15.9713 11.5 15.9656 11.5C15.9598 11.5 15.9541 11.5 15.9484 11.5C15.9427 11.5 15.937 11.5 15.9312 11.5C15.9255 11.5 15.9198 11.5 15.9141 11.5C15.9084 11.5 15.9027 11.5 15.897 11.5C15.8913 11.5 15.8856 11.5 15.8799 11.5C15.8742 11.5 15.8685 11.5 15.8628 11.5C15.8571 11.5 15.8514 11.5 15.8457 11.5C15.84 11.5 15.8343 11.5 15.8286 11.5C15.823 11.5 15.8173 11.5 15.8116 11.5C15.8059 11.5 15.8003 11.5 15.7946 11.5C15.7889 11.5 15.7832 11.5 15.7776 11.5C15.7719 11.5 15.7663 11.5 15.7606 11.5C15.7549 11.5 15.7493 11.5 15.7436 11.5C15.738 11.5 15.7323 11.5 15.7267 11.5C15.721 11.5 15.7154 11.5 15.7098 11.5C15.7041 11.5 15.6985 11.5 15.6929 11.5C15.6872 11.5 15.6816 11.5 15.676 11.5C15.6703 11.5 15.6647 11.5 15.6591 11.5C15.6535 11.5 15.6478 11.5 15.6422 11.5C15.6366 11.5 15.631 11.5 15.6254 11.5C15.6198 11.5 15.6142 11.5 15.6086 11.5C15.603 11.5 15.5973 11.5 15.5917 11.5C15.5861 11.5 15.5806 11.5 15.575 11.5C15.5694 11.5 15.5638 11.5 15.5582 11.5C15.5526 11.5 15.547 11.5 15.5414 11.5C15.5358 11.5 15.5303 11.5 15.5247 11.5C15.5191 11.5 15.5135 11.5 15.508 11.5C15.5024 11.5 15.4968 11.5 15.4913 11.5C15.4857 11.5 15.4801 11.5 15.4746 11.5C15.469 11.5 15.4634 11.5 15.4579 11.5C15.4523 11.5 15.4468 11.5 15.4412 11.5C15.4357 11.5 15.4301 11.5 15.4246 11.5C15.4191 11.5 15.4135 11.5 15.408 11.5C15.4024 11.5 15.3969 11.5 15.3914 11.5C15.3858 11.5 15.3803 11.5 15.3748 11.5C15.3692 11.5 15.3637 11.5 15.3582 11.5C15.3527 11.5 15.3472 11.5 15.3416 11.5C15.3361 11.5 15.3306 11.5 15.3251 11.5C15.3196 11.5 15.3141 11.5 15.3086 11.5C15.3031 11.5 15.2976 11.5 15.2921 11.5C15.2866 11.5 15.2811 11.5 15.2756 11.5C15.2701 11.5 15.2646 11.5 15.2591 11.5C15.2536 11.5 15.2481 11.5 15.2426 11.5C15.2371 11.5 15.2316 11.5 15.2262 11.5C15.2207 11.5 15.2152 11.5 15.2097 11.5C15.2043 11.5 15.1988 11.5 15.1933 11.5C15.1878 11.5 15.1824 11.5 15.1769 11.5C15.1714 11.5 15.166 11.5 15.1605 11.5C15.1551 11.5 15.1496 11.5 15.1441 11.5C15.1387 11.5 15.1332 11.5 15.1278 11.5C15.1223 11.5 15.1169 11.5 15.1114 11.5C15.106 11.5 15.1006 11.5 15.0951 11.5C15.0897 11.5 15.0842 11.5 15.0788 11.5C15.0734 11.5 15.0679 11.5 15.0625 11.5C15.0571 11.5 15.0516 11.5 15.0462 11.5C15.0408 11.5 15.0354 11.5 15.0299 11.5C15.0245 11.5 15.0191 11.5 15.0137 11.5C15.0083 11.5 15.0029 11.5 14.9975 11.5C14.992 11.5 14.9866 11.5 14.9812 11.5C14.9758 11.5 14.9704 11.5 14.965 11.5C14.9596 11.5 14.9542 11.5 14.9488 11.5C14.9434 11.5 14.938 11.5 14.9326 11.5C14.9272 11.5 14.9218 11.5 14.9165 11.5C14.9111 11.5 14.9057 11.5 14.9003 11.5C14.8949 11.5 14.8895 11.5 14.8842 11.5C14.8788 11.5 14.8734 11.5 14.868 11.5C14.8627 11.5 14.8573 11.5 14.8519 11.5C14.8466 11.5 14.8412 11.5 14.8358 11.5C14.8305 11.5 14.8251 11.5 14.8197 11.5C14.8144 11.5 14.809 11.5 14.8037 11.5C14.7983 11.5 14.793 11.5 14.7876 11.5C14.7823 11.5 14.7769 11.5 14.7716 11.5C14.7662 11.5 14.7609 11.5 14.7555 11.5C14.7502 11.5 14.7448 11.5 14.7395 11.5C14.7342 11.5 14.7288 11.5 14.7235 11.5C14.7182 11.5 14.7128 11.5 14.7075 11.5C14.7022 11.5 14.6969 11.5 14.6915 11.5C14.6862 11.5 14.6809 11.5 14.6756 11.5C14.6702 11.5 14.6649 11.5 14.6596 11.5C14.6543 11.5 14.649 11.5 14.6437 11.5C14.6384 11.5 14.633 11.5 14.6277 11.5C14.6224 11.5 14.6171 11.5 14.6118 11.5C14.6065 11.5 14.6012 11.5 14.5959 11.5C14.5906 11.5 14.5853 11.5 14.58 11.5C14.5747 11.5 14.5694 11.5 14.5642 11.5C14.5589 11.5 14.5536 11.5 14.5483 11.5C14.543 11.5 14.5377 11.5 14.5324 11.5C14.5272 11.5 14.5219 11.5 14.5166 11.5C14.5113 11.5 14.506 11.5 14.5008 11.5C14.4955 11.5 14.4902 11.5 14.485 11.5C14.4797 11.5 14.4744 11.5 14.4691 11.5C14.4639 11.5 14.4586 11.5 14.4534 11.5C14.4481 11.5 14.4428 11.5 14.4376 11.5C14.4323 11.5 14.4271 11.5 14.4218 11.5C14.4166 11.5 14.4113 11.5 14.406 11.5C14.4008 11.5 14.3955 11.5 14.3903 11.5C14.3851 11.5 14.3798 11.5 14.3746 11.5C14.3693 11.5 14.3641 11.5 14.3588 11.5C14.3536 11.5 14.3484 11.5 14.3431 11.5C14.3379 11.5 14.3327 11.5 14.3274 11.5C14.3222 11.5 14.317 11.5 14.3117 11.5C14.3065 11.5 14.3013 11.5 14.2961 11.5C14.2908 11.5 14.2856 11.5 14.2804 11.5C14.2752 11.5 14.27 11.5 14.2648 11.5C14.2595 11.5 14.2543 11.5 14.2491 11.5C14.2439 11.5 14.2387 11.5 14.2335 11.5C14.2283 11.5 14.2231 11.5 14.2179 11.5C14.2126 11.5 14.2074 11.5 14.2022 11.5C14.197 11.5 14.1918 11.5 14.1866 11.5C14.1814 11.5 14.1762 11.5 14.1711 11.5C14.1659 11.5 14.1607 11.5 14.1555 11.5C14.1503 11.5 14.1451 11.5 14.1399 11.5C14.1347 11.5 14.1295 11.5 14.1243 11.5C14.1192 11.5 14.114 11.5 14.1088 11.5C14.1036 11.5 14.0984 11.5 14.0933 11.5C14.0881 11.5 14.0829 11.5 14.0777 11.5C14.0726 11.5 14.0674 11.5 14.0622 11.5C14.057 11.5 14.0519 11.5 14.0467 11.5C14.0415 11.5 14.0364 11.5 14.0312 11.5C14.026 11.5 14.0209 11.5 14.0157 11.5C14.0106 11.5 14.0054 11.5 14.0002 11.5C13.9951 11.5 13.9899 11.5 13.9848 11.5C13.9796 11.5 13.9745 11.5 13.9693 11.5C13.9642 11.5 13.959 11.5 13.9539 11.5C13.9487 11.5 13.9436 11.5 13.9384 11.5C13.9333 11.5 13.9281 11.5 13.923 11.5C13.9179 11.5 13.9127 11.5 13.9076 11.5C13.9024 11.5 13.8973 11.5 13.8922 11.5C13.887 11.5 13.8819 11.5 13.8768 11.5C13.8716 11.5 13.8665 11.5 13.8614 11.5C13.8563 11.5 13.8511 11.5 13.846 11.5C13.8409 11.5 13.8358 11.5 13.8306 11.5C13.8255 11.5 13.8204 11.5 13.8153 11.5C13.8101 11.5 13.805 11.5 13.7999 11.5C13.7948 11.5 13.7897 11.5 13.7846 11.5C13.7794 11.5 13.7743 11.5 13.7692 11.5C13.7641 11.5 13.759 11.5 13.7539 11.5C13.7488 11.5 13.7437 11.5 13.7386 11.5C13.7335 11.5 13.7284 11.5 13.7233 11.5C13.7182 11.5 13.7131 11.5 13.708 11.5C13.7029 11.5 13.6978 11.5 13.6927 11.5C13.6876 11.5 13.6825 11.5 13.6774 11.5C13.6723 11.5 13.6672 11.5 13.6621 11.5C13.657 11.5 13.6519 11.5 13.6468 11.5C13.6417 11.5 13.6366 11.5 13.6316 11.5C13.6265 11.5 13.6214 11.5 13.6163 11.5C13.6112 11.5 13.6061 11.5 13.6011 11.5C13.596 11.5 13.5909 11.5 13.5858 11.5C13.5807 11.5 13.5757 11.5 13.5706 11.5C13.5655 11.5 13.5604 11.5 13.5554 11.5C13.5503 11.5 13.5452 11.5 13.5401 11.5C13.5351 11.5 13.53 11.5 13.5249 11.5C13.5199 11.5 13.5148 11.5 13.5097 11.5C13.5047 11.5 13.4996 11.5 13.4945 11.5C13.4895 11.5 13.4844 11.5 13.4794 11.5C13.4743 11.5 13.4692 11.5 13.4642 11.5C13.4591 11.5 13.4541 11.5 13.449 11.5C13.4439 11.5 13.4389 11.5 13.4338 11.5C13.4288 11.5 13.4237 11.5 13.4187 11.5C13.4136 11.5 13.4086 11.5 13.4035 11.5C13.3985 11.5 13.3934 11.5 13.3884 11.5C13.3833 11.5 13.3783 11.5 13.3732 11.5C13.3682 11.5 13.3632 11.5 13.3581 11.5C13.3531 11.5 13.348 11.5 13.343 11.5C13.338 11.5 13.3329 11.5 13.3279 11.5C13.3228 11.5 13.3178 11.5 13.3128 11.5C13.3077 11.5 13.3027 11.5 13.2977 11.5C13.2926 11.5 13.2876 11.5 13.2826 11.5C13.2775 11.5 13.2725 11.5 13.2675 11.5C13.2624 11.5 13.2574 11.5 13.2524 11.5C13.2474 11.5 13.2423 11.5 13.2373 11.5C13.2323 11.5 13.2273 11.5 13.2222 11.5C13.2172 11.5 13.2122 11.5 13.2072 11.5C13.2021 11.5 13.1971 11.5 13.1921 11.5C13.1871 11.5 13.1821 11.5 13.1771 11.5C13.172 11.5 13.167 11.5 13.162 11.5C13.157 11.5 13.152 11.5 13.147 11.5C13.1419 11.5 13.1369 11.5 13.1319 11.5C13.1269 11.5 13.1219 11.5 13.1169 11.5C13.1119 11.5 13.1069 11.5 13.1019 11.5C13.0969 11.5 13.0918 11.5 13.0868 11.5C13.0818 11.5 13.0768 11.5 13.0718 11.5C13.0668 11.5 13.0618 11.5 13.0568 11.5C13.0518 11.5 13.0468 11.5 13.0418 11.5C13.0368 11.5 13.0318 11.5 13.0268 11.5C13.0218 11.5 13.0168 11.5 13.0118 11.5C13.0068 11.5 13.0018 11.5 12.9968 11.5C12.9918 11.5 12.9868 11.5 12.9818 11.5C12.9768 11.5 12.9718 11.5 12.9669 11.5C12.9619 11.5 12.9569 11.5 12.9519 11.5C12.9469 11.5 12.9419 11.5 12.9369 11.5C12.9319 11.5 12.9269 11.5 12.9219 11.5C12.917 11.5 12.912 11.5 12.907 11.5C12.902 11.5 12.897 11.5 12.892 11.5C12.887 11.5 12.8821 11.5 12.8771 11.5C12.8721 11.5 12.8671 11.5 12.8621 11.5C12.8571 11.5 12.8522 11.5 12.8472 11.5C12.8422 11.5 12.8372 11.5 12.8322 11.5C12.8273 11.5 12.8223 11.5 12.8173 11.5C12.8123 11.5 12.8073 11.5 12.8024 11.5C12.7974 11.5 12.7924 11.5 12.7874 11.5C12.7825 11.5 12.7775 11.5 12.7725 11.5C12.7675 11.5 12.7626 11.5 12.7576 11.5C12.7526 11.5 12.7477 11.5 12.7427 11.5C12.7377 11.5 12.7327 11.5 12.7278 11.5C12.7228 11.5 12.7178 11.5 12.7129 11.5C12.7079 11.5 12.7029 11.5 12.698 11.5C12.693 11.5 12.688 11.5 12.683 11.5C12.6781 11.5 12.6731 11.5 12.6681 11.5C12.6632 11.5 12.6582 11.5 12.6533 11.5C12.6483 11.5 12.6433 11.5 12.6384 11.5C12.6334 11.5 12.6284 11.5 12.6235 11.5C12.6185 11.5 12.6135 11.5 12.6086 11.5C12.6036 11.5 12.5987 11.5 12.5937 11.5C12.5887 11.5 12.5838 11.5 12.5788 11.5C12.5739 11.5 12.5689 11.5 12.5639 11.5C12.559 11.5 12.554 11.5 12.5491 11.5C12.5441 11.5 12.5392 11.5 12.5342 11.5C12.5292 11.5 12.5243 11.5 12.5193 11.5C12.5144 11.5 12.5094 11.5 12.5045 11.5C12.4995 11.5 12.4946 11.5 12.4896 11.5C12.4846 11.5 12.4797 11.5 12.4747 11.5C12.4698 11.5 12.4648 11.5 12.4599 11.5C12.4549 11.5 12.45 11.5 12.445 11.5C12.4401 11.5 12.4351 11.5 12.4302 11.5C12.4252 11.5 12.4203 11.5 12.4153 11.5C12.4104 11.5 12.4054 11.5 12.4005 11.5C12.3955 11.5 12.3906 11.5 12.3856 11.5C12.3807 11.5 12.3757 11.5 12.3708 11.5C12.3658 11.5 12.3609 11.5 12.3559 11.5C12.351 11.5 12.346 11.5 12.3411 11.5C12.3361 11.5 12.3312 11.5 12.3262 11.5C12.3213 11.5 12.3163 11.5 12.3114 11.5C12.3064 11.5 12.3015 11.5 12.2966 11.5C12.2916 11.5 12.2867 11.5 12.2817 11.5C12.2768 11.5 12.2718 11.5 12.2669 11.5C12.2619 11.5 12.257 11.5 12.2521 11.5C12.2471 11.5 12.2422 11.5 12.2372 11.5C12.2323 11.5 12.2273 11.5 12.2224 11.5C12.2174 11.5 12.2125 11.5 12.2076 11.5C12.2026 11.5 12.1977 11.5 12.1927 11.5C12.1878 11.5 12.1828 11.5 12.1779 11.5C12.173 11.5 12.168 11.5 12.1631 11.5C12.1581 11.5 12.1532 11.5 12.1482 11.5C12.1433 11.5 12.1384 11.5 12.1334 11.5C12.1285 11.5 12.1235 11.5 12.1186 11.5C12.1136 11.5 12.1087 11.5 12.1038 11.5C12.0988 11.5 12.0939 11.5 12.0889 11.5C12.084 11.5 12.0791 11.5 12.0741 11.5C12.0692 11.5 12.0642 11.5 12.0593 11.5C12.0544 11.5 12.0494 11.5 12.0445 11.5C12.0395 11.5 12.0346 11.5 12.0296 11.5C12.0247 11.5 12.0198 11.5 12.0148 11.5C12.0099 11.5 12.0049 11.5 12 11.5C11.9951 11.5 11.9901 11.5 11.9852 11.5C11.9802 11.5 11.9753 11.5 11.9704 11.5C11.9654 11.5 11.9605 11.5 11.9555 11.5C11.9506 11.5 11.9456 11.5 11.9407 11.5C11.9358 11.5 11.9308 11.5 11.9259 11.5C11.9209 11.5 11.916 11.5 11.9111 11.5C11.9061 11.5 11.9012 11.5 11.8962 11.5C11.8913 11.5 11.8864 11.5 11.8814 11.5C11.8765 11.5 11.8715 11.5 11.8666 11.5C11.8616 11.5 11.8567 11.5 11.8518 11.5C11.8468 11.5 11.8419 11.5 11.8369 11.5C11.832 11.5 11.827 11.5 11.8221 11.5C11.8172 11.5 11.8122 11.5 11.8073 11.5C11.8023 11.5 11.7974 11.5 11.7924 11.5C11.7875 11.5 11.7826 11.5 11.7776 11.5C11.7727 11.5 11.7677 11.5 11.7628 11.5C11.7578 11.5 11.7529 11.5 11.7479 11.5C11.743 11.5 11.7381 11.5 11.7331 11.5C11.7282 11.5 11.7232 11.5 11.7183 11.5C11.7133 11.5 11.7084 11.5 11.7034 11.5C11.6985 11.5 11.6936 11.5 11.6886 11.5C11.6837 11.5 11.6787 11.5 11.6738 11.5C11.6688 11.5 11.6639 11.5 11.6589 11.5C11.654 11.5 11.649 11.5 11.6441 11.5C11.6391 11.5 11.6342 11.5 11.6292 11.5C11.6243 11.5 11.6193 11.5 11.6144 11.5C11.6094 11.5 11.6045 11.5 11.5995 11.5C11.5946 11.5 11.5896 11.5 11.5847 11.5C11.5797 11.5 11.5748 11.5 11.5698 11.5C11.5649 11.5 11.5599 11.5 11.555 11.5C11.55 11.5 11.5451 11.5 11.5401 11.5C11.5352 11.5 11.5302 11.5 11.5253 11.5C11.5203 11.5 11.5154 11.5 11.5104 11.5C11.5054 11.5 11.5005 11.5 11.4955 11.5C11.4906 11.5 11.4856 11.5 11.4807 11.5C11.4757 11.5 11.4708 11.5 11.4658 11.5C11.4608 11.5 11.4559 11.5 11.4509 11.5C11.446 11.5 11.441 11.5 11.4361 11.5C11.4311 11.5 11.4261 11.5 11.4212 11.5C11.4162 11.5 11.4113 11.5 11.4063 11.5C11.4013 11.5 11.3964 11.5 11.3914 11.5C11.3865 11.5 11.3815 11.5 11.3765 11.5C11.3716 11.5 11.3666 11.5 11.3616 11.5C11.3567 11.5 11.3517 11.5 11.3467 11.5C11.3418 11.5 11.3368 11.5 11.3319 11.5C11.3269 11.5 11.3219 11.5 11.317 11.5C11.312 11.5 11.307 11.5 11.302 11.5C11.2971 11.5 11.2921 11.5 11.2871 11.5C11.2822 11.5 11.2772 11.5 11.2722 11.5C11.2673 11.5 11.2623 11.5 11.2573 11.5C11.2523 11.5 11.2474 11.5 11.2424 11.5C11.2374 11.5 11.2325 11.5 11.2275 11.5C11.2225 11.5 11.2175 11.5 11.2126 11.5C11.2076 11.5 11.2026 11.5 11.1976 11.5C11.1927 11.5 11.1877 11.5 11.1827 11.5C11.1777 11.5 11.1727 11.5 11.1678 11.5C11.1628 11.5 11.1578 11.5 11.1528 11.5C11.1478 11.5 11.1429 11.5 11.1379 11.5C11.1329 11.5 11.1279 11.5 11.1229 11.5C11.1179 11.5 11.113 11.5 11.108 11.5C11.103 11.5 11.098 11.5 11.093 11.5C11.088 11.5 11.083 11.5 11.0781 11.5C11.0731 11.5 11.0681 11.5 11.0631 11.5C11.0581 11.5 11.0531 11.5 11.0481 11.5C11.0431 11.5 11.0381 11.5 11.0331 11.5C11.0282 11.5 11.0232 11.5 11.0182 11.5C11.0132 11.5 11.0082 11.5 11.0032 11.5C10.9982 11.5 10.9932 11.5 10.9882 11.5C10.9832 11.5 10.9782 11.5 10.9732 11.5C10.9682 11.5 10.9632 11.5 10.9582 11.5C10.9532 11.5 10.9482 11.5 10.9432 11.5C10.9382 11.5 10.9332 11.5 10.9282 11.5C10.9232 11.5 10.9182 11.5 10.9132 11.5C10.9082 11.5 10.9031 11.5 10.8981 11.5C10.8931 11.5 10.8881 11.5 10.8831 11.5C10.8781 11.5 10.8731 11.5 10.8681 11.5C10.8631 11.5 10.8581 11.5 10.853 11.5C10.848 11.5 10.843 11.5 10.838 11.5C10.833 11.5 10.828 11.5 10.8229 11.5C10.8179 11.5 10.8129 11.5 10.8079 11.5C10.8029 11.5 10.7979 11.5 10.7928 11.5C10.7878 11.5 10.7828 11.5 10.7778 11.5C10.7727 11.5 10.7677 11.5 10.7627 11.5C10.7577 11.5 10.7526 11.5 10.7476 11.5C10.7426 11.5 10.7376 11.5 10.7325 11.5C10.7275 11.5 10.7225 11.5 10.7174 11.5C10.7124 11.5 10.7074 11.5 10.7023 11.5C10.6973 11.5 10.6923 11.5 10.6872 11.5C10.6822 11.5 10.6772 11.5 10.6721 11.5C10.6671 11.5 10.662 11.5 10.657 11.5C10.652 11.5 10.6469 11.5 10.6419 11.5C10.6368 11.5 10.6318 11.5 10.6268 11.5C10.6217 11.5 10.6167 11.5 10.6116 11.5C10.6066 11.5 10.6015 11.5 10.5965 11.5C10.5914 11.5 10.5864 11.5 10.5813 11.5C10.5763 11.5 10.5712 11.5 10.5662 11.5C10.5611 11.5 10.5561 11.5 10.551 11.5C10.5459 11.5 10.5409 11.5 10.5358 11.5C10.5308 11.5 10.5257 11.5 10.5206 11.5C10.5156 11.5 10.5105 11.5 10.5055 11.5C10.5004 11.5 10.4953 11.5 10.4903 11.5C10.4852 11.5 10.4801 11.5 10.4751 11.5C10.47 11.5 10.4649 11.5 10.4599 11.5C10.4548 11.5 10.4497 11.5 10.4446 11.5C10.4396 11.5 10.4345 11.5 10.4294 11.5C10.4243 11.5 10.4193 11.5 10.4142 11.5C10.4091 11.5 10.404 11.5 10.3989 11.5C10.3939 11.5 10.3888 11.5 10.3837 11.5C10.3786 11.5 10.3735 11.5 10.3684 11.5C10.3634 11.5 10.3583 11.5 10.3532 11.5C10.3481 11.5 10.343 11.5 10.3379 11.5C10.3328 11.5 10.3277 11.5 10.3226 11.5C10.3175 11.5 10.3124 11.5 10.3073 11.5C10.3022 11.5 10.2971 11.5 10.292 11.5C10.2869 11.5 10.2818 11.5 10.2767 11.5C10.2716 11.5 10.2665 11.5 10.2614 11.5C10.2563 11.5 10.2512 11.5 10.2461 11.5C10.241 11.5 10.2359 11.5 10.2308 11.5C10.2257 11.5 10.2206 11.5 10.2154 11.5C10.2103 11.5 10.2052 11.5 10.2001 11.5C10.195 11.5 10.1899 11.5 10.1847 11.5C10.1796 11.5 10.1745 11.5 10.1694 11.5C10.1642 11.5 10.1591 11.5 10.154 11.5C10.1489 11.5 10.1437 11.5 10.1386 11.5C10.1335 11.5 10.1284 11.5 10.1232 11.5C10.1181 11.5 10.113 11.5 10.1078 11.5C10.1027 11.5 10.0976 11.5 10.0924 11.5C10.0873 11.5 10.0821 11.5 10.077 11.5C10.0719 11.5 10.0667 11.5 10.0616 11.5C10.0564 11.5 10.0513 11.5 10.0461 11.5C10.041 11.5 10.0358 11.5 10.0307 11.5C10.0255 11.5 10.0204 11.5 10.0152 11.5C10.0101 11.5 10.0049 11.5 9.99975 11.5C9.99459 11.5 9.98943 11.5 9.98427 11.5C9.97911 11.5 9.97395 11.5 9.96879 11.5C9.96362 11.5 9.95846 11.5 9.95329 11.5C9.94812 11.5 9.94295 11.5 9.93778 11.5C9.93261 11.5 9.92744 11.5 9.92227 11.5C9.91709 11.5 9.91192 11.5 9.90674 11.5C9.90156 11.5 9.89638 11.5 9.8912 11.5C9.88602 11.5 9.88084 11.5 9.87565 11.5C9.87047 11.5 9.86528 11.5 9.8601 11.5C9.85491 11.5 9.84972 11.5 9.84453 11.5C9.83934 11.5 9.83414 11.5 9.82895 11.5C9.82375 11.5 9.81856 11.5 9.81336 11.5C9.80816 11.5 9.80296 11.5 9.79776 11.5C9.79256 11.5 9.78735 11.5 9.78215 11.5C9.77694 11.5 9.77173 11.5 9.76653 11.5C9.76132 11.5 9.75611 11.5 9.75089 11.5C9.74568 11.5 9.74047 11.5 9.73525 11.5C9.73003 11.5 9.72481 11.5 9.71959 11.5C9.71437 11.5 9.70915 11.5 9.70393 11.5C9.69871 11.5 9.69348 11.5 9.68825 11.5C9.68302 11.5 9.6778 11.5 9.67256 11.5C9.66733 11.5 9.6621 11.5 9.65686 11.5C9.65163 11.5 9.64639 11.5 9.64115 11.5C9.63592 11.5 9.63067 11.5 9.62543 11.5C9.62019 11.5 9.61494 11.5 9.6097 11.5C9.60445 11.5 9.5992 11.5 9.59395 11.5C9.5887 11.5 9.58345 11.5 9.5782 11.5C9.57294 11.5 9.56769 11.5 9.56243 11.5C9.55717 11.5 9.55191 11.5 9.54665 11.5C9.54138 11.5 9.53612 11.5 9.53085 11.5C9.52559 11.5 9.52032 11.5 9.51505 11.5C9.50978 11.5 9.50451 11.5 9.49923 11.5C9.49396 11.5 9.48868 11.5 9.4834 11.5C9.47813 11.5 9.47285 11.5 9.46756 11.5C9.46228 11.5 9.457 11.5 9.45171 11.5C9.44642 11.5 9.44114 11.5 9.43585 11.5C9.43055 11.5 9.42526 11.5 9.41997 11.5C9.41467 11.5 9.40938 11.5 9.40408 11.5C9.39878 11.5 9.39348 11.5 9.38817 11.5C9.38287 11.5 9.37757 11.5 9.37226 11.5C9.36695 11.5 9.36164 11.5 9.35633 11.5C9.35102 11.5 9.34571 11.5 9.34039 11.5C9.33507 11.5 9.32976 11.5 9.32444 11.5C9.31912 11.5 9.31379 11.5 9.30847 11.5C9.30315 11.5 9.29782 11.5 9.29249 11.5C9.28716 11.5 9.28183 11.5 9.2765 11.5C9.27116 11.5 9.26583 11.5 9.26049 11.5C9.25515 11.5 9.24981 11.5 9.24447 11.5C9.23913 11.5 9.23379 11.5 9.22844 11.5C9.22309 11.5 9.21774 11.5 9.21239 11.5C9.20704 11.5 9.20169 11.5 9.19633 11.5C9.19098 11.5 9.18562 11.5 9.18026 11.5C9.1749 11.5 9.16954 11.5 9.16418 11.5C9.15881 11.5 9.15344 11.5 9.14808 11.5C9.14271 11.5 9.13734 11.5 9.13196 11.5C9.12659 11.5 9.12121 11.5 9.11583 11.5C9.11046 11.5 9.10508 11.5 9.09969 11.5C9.09431 11.5 9.08893 11.5 9.08354 11.5C9.07815 11.5 9.07276 11.5 9.06737 11.5C9.06198 11.5 9.05658 11.5 9.05119 11.5C9.04579 11.5 9.04039 11.5 9.03499 11.5C9.02959 11.5 9.02418 11.5 9.01878 11.5C9.01337 11.5 9.00796 11.5 9.00255 11.5C8.99714 11.5 8.99172 11.5 8.98631 11.5C8.98089 11.5 8.97547 11.5 8.97005 11.5C8.96463 11.5 8.95921 11.5 8.95378 11.5C8.94836 11.5 8.94293 11.5 8.9375 11.5C8.93207 11.5 8.92664 11.5 8.9212 11.5C8.91577 11.5 8.91033 11.5 8.90489 11.5C8.89945 11.5 8.894 11.5 8.88856 11.5C8.88311 11.5 8.87767 11.5 8.87222 11.5C8.86677 11.5 8.86131 11.5 8.85586 11.5C8.8504 11.5 8.84494 11.5 8.83948 11.5C8.83402 11.5 8.82856 11.5 8.8231 11.5C8.81763 11.5 8.81216 11.5 8.80669 11.5C8.80122 11.5 8.79575 11.5 8.79027 11.5C8.7848 11.5 8.77932 11.5 8.77384 11.5C8.76836 11.5 8.76287 11.5 8.75739 11.5C8.7519 11.5 8.74641 11.5 8.74092 11.5C8.73543 11.5 8.72994 11.5 8.72444 11.5C8.71895 11.5 8.71345 11.5 8.70795 11.5C8.70244 11.5 8.69694 11.5 8.69143 11.5C8.68593 11.5 8.68042 11.5 8.67491 11.5C8.66939 11.5 8.66388 11.5 8.65836 11.5C8.65285 11.5 8.64733 11.5 8.6418 11.5C8.63628 11.5 8.63075 11.5 8.62523 11.5C8.6197 11.5 8.61417 11.5 8.60863 11.5C8.6031 11.5 8.59757 11.5 8.59203 11.5C8.58649 11.5 8.58095 11.5 8.5754 11.5C8.56986 11.5 8.56431 11.5 8.55876 11.5C8.55321 11.5 8.54766 11.5 8.54211 11.5C8.53655 11.5 8.53099 11.5 8.52543 11.5C8.51987 11.5 8.51431 11.5 8.50874 11.5C8.50318 11.5 8.49761 11.5 8.49204 11.5C8.48646 11.5 8.48089 11.5 8.47531 11.5C8.46974 11.5 8.46416 11.5 8.45857 11.5C8.45299 11.5 8.4474 11.5 8.44182 11.5C8.43623 11.5 8.43064 11.5 8.42504 11.5C8.41945 11.5 8.41385 11.5 8.40825 11.5C8.40265 11.5 8.39705 11.5 8.39144 11.5C8.38584 11.5 8.38023 11.5 8.37462 11.5C8.36901 11.5 8.36339 11.5 8.35778 11.5C8.35216 11.5 8.34654 11.5 8.34092 11.5C8.3353 11.5 8.32967 11.5 8.32404 11.5C8.31841 11.5 8.31278 11.5 8.30715 11.5C8.30151 11.5 8.29588 11.5 8.29024 11.5C8.2846 11.5 8.27895 11.5 8.27331 11.5C8.26766 11.5 8.26201 11.5 8.25636 11.5C8.25071 11.5 8.24506 11.5 8.2394 11.5C8.23374 11.5 8.22808 11.5 8.22242 11.5C8.21675 11.5 8.21109 11.5 8.20542 11.5C8.19975 11.5 8.19407 11.5 8.1884 11.5C8.18272 11.5 8.17704 11.5 8.17136 11.5C8.16568 11.5 8.16 11.5 8.15431 11.5C8.14862 11.5 8.14293 11.5 8.13724 11.5C8.13154 11.5 8.12585 11.5 8.12015 11.5C8.11445 11.5 8.10874 11.5 8.10304 11.5C8.09733 11.5 8.09162 11.5 8.08591 11.5C8.0802 11.5 8.07448 11.5 8.06877 11.5C8.06305 11.5 8.05733 11.5 8.0516 11.5C8.04588 11.5 8.04015 11.5 8.03442 11.5C8.02869 11.5 8.02296 11.5 8.01722 11.5C8.01148 11.5 8.00574 11.5 8 11.5L8 12Z" fill="#E5E6E9"/>
</svg>
